<mxfile host="Electron" modified="2024-04-08T09:12:35.167Z" agent="Mozilla/5.0 (X11; Linux x86_64) AppleWebKit/537.36 (KHTML, like Gecko) draw.io/24.1.0 Chrome/120.0.6099.109 Electron/28.1.0 Safari/537.36" etag="EX8NPAOBwRFSAQUghkFv" version="24.1.0" type="device">
  <diagram name="Page-1" id="wRa7nE40LtsUSWH7oz2Q">
    <mxGraphModel dx="968" dy="483" grid="1" gridSize="10" guides="1" tooltips="1" connect="1" arrows="1" fold="1" page="1" pageScale="1" pageWidth="850" pageHeight="1100" math="0" shadow="0">
      <root>
        <mxCell id="0" />
        <mxCell id="1" parent="0" />
        <mxCell id="VLCk3PX00tIKe8Ib5w_5-1" value="teleop_twist_keyboard" style="rounded=1;whiteSpace=wrap;html=1;fillColor=#dae8fc;strokeColor=#6c8ebf;" parent="1" vertex="1">
          <mxGeometry x="50" y="215" width="140" height="30" as="geometry" />
        </mxCell>
        <mxCell id="VLCk3PX00tIKe8Ib5w_5-2" value="locomotion_controller_node" style="rounded=1;whiteSpace=wrap;html=1;fillColor=#f8cecc;strokeColor=#b85450;" parent="1" vertex="1">
          <mxGeometry x="490" y="215" width="170" height="30" as="geometry" />
        </mxCell>
        <mxCell id="VLCk3PX00tIKe8Ib5w_5-3" value="" style="endArrow=classic;html=1;rounded=0;exitX=1;exitY=0.5;exitDx=0;exitDy=0;entryX=0;entryY=0.5;entryDx=0;entryDy=0;" parent="1" source="VLCk3PX00tIKe8Ib5w_5-1" target="VLCk3PX00tIKe8Ib5w_5-2" edge="1">
          <mxGeometry relative="1" as="geometry">
            <mxPoint x="280" y="229.5" as="sourcePoint" />
            <mxPoint x="380" y="229.5" as="targetPoint" />
          </mxGeometry>
        </mxCell>
        <mxCell id="VLCk3PX00tIKe8Ib5w_5-4" value="/cmd_vel&lt;br&gt;geometry_msgs/Twist" style="edgeLabel;resizable=0;html=1;align=center;verticalAlign=middle;" parent="VLCk3PX00tIKe8Ib5w_5-3" connectable="0" vertex="1">
          <mxGeometry relative="1" as="geometry" />
        </mxCell>
        <mxCell id="VLCk3PX00tIKe8Ib5w_5-5" value="" style="endArrow=classic;html=1;rounded=0;exitX=1;exitY=0.5;exitDx=0;exitDy=0;entryX=0.5;entryY=0;entryDx=0;entryDy=0;" parent="1" source="VLCk3PX00tIKe8Ib5w_5-2" target="GSwu48_hRkYFbj5P--Sr-1" edge="1">
          <mxGeometry relative="1" as="geometry">
            <mxPoint x="520" y="230" as="sourcePoint" />
            <mxPoint x="820" y="230" as="targetPoint" />
            <Array as="points">
              <mxPoint x="740" y="230" />
              <mxPoint x="890" y="230" />
            </Array>
          </mxGeometry>
        </mxCell>
        <mxCell id="VLCk3PX00tIKe8Ib5w_5-6" value="&lt;div&gt;/duty_cycle&lt;/div&gt;&lt;div&gt;std_msgs/String&lt;br&gt;&lt;/div&gt;" style="edgeLabel;resizable=0;html=1;align=center;verticalAlign=middle;" parent="VLCk3PX00tIKe8Ib5w_5-5" connectable="0" vertex="1">
          <mxGeometry relative="1" as="geometry">
            <mxPoint x="-3" as="offset" />
          </mxGeometry>
        </mxCell>
        <mxCell id="IHQPnhAprt_sBTRfJRE9-3" value="command laptop" style="shape=umlFrame;whiteSpace=wrap;html=1;pointerEvents=0;width=120;height=30;" parent="1" vertex="1">
          <mxGeometry x="13" y="160" width="220" height="250" as="geometry" />
        </mxCell>
        <mxCell id="IHQPnhAprt_sBTRfJRE9-4" value="RPi" style="shape=umlFrame;whiteSpace=wrap;html=1;pointerEvents=0;" parent="1" vertex="1">
          <mxGeometry x="460" y="160" width="520" height="270" as="geometry" />
        </mxCell>
        <mxCell id="EZgEbDelP1gbQMjjr06G-3" value="flipper_controller_node" style="rounded=1;whiteSpace=wrap;html=1;fillColor=#f8cecc;strokeColor=#b85450;" parent="1" vertex="1">
          <mxGeometry x="490" y="290" width="150" height="80" as="geometry" />
        </mxCell>
        <mxCell id="EZgEbDelP1gbQMjjr06G-4" value="flipper_keyboard_node" style="rounded=1;html=1;fillColor=#dae8fc;strokeColor=#6c8ebf;verticalAlign=middle;whiteSpace=wrap;" parent="1" vertex="1">
          <mxGeometry x="40" y="290" width="160" height="80" as="geometry" />
        </mxCell>
        <mxCell id="EZgEbDelP1gbQMjjr06G-5" value="" style="endArrow=classic;html=1;rounded=0;exitX=1;exitY=0.25;exitDx=0;exitDy=0;entryX=0;entryY=0.25;entryDx=0;entryDy=0;" parent="1" source="EZgEbDelP1gbQMjjr06G-4" target="EZgEbDelP1gbQMjjr06G-3" edge="1">
          <mxGeometry relative="1" as="geometry">
            <mxPoint x="200" y="240" as="sourcePoint" />
            <mxPoint x="505" y="240" as="targetPoint" />
          </mxGeometry>
        </mxCell>
        <mxCell id="EZgEbDelP1gbQMjjr06G-6" value="/flipper_movement_command&lt;br&gt;std_msgs/UInt8" style="edgeLabel;resizable=0;html=1;align=center;verticalAlign=middle;" parent="EZgEbDelP1gbQMjjr06G-5" connectable="0" vertex="1">
          <mxGeometry relative="1" as="geometry" />
        </mxCell>
        <mxCell id="EZgEbDelP1gbQMjjr06G-8" value="" style="endArrow=classic;html=1;rounded=0;exitX=1;exitY=0.5;exitDx=0;exitDy=0;entryX=0;entryY=0.5;entryDx=0;entryDy=0;" parent="1" source="EZgEbDelP1gbQMjjr06G-3" target="GSwu48_hRkYFbj5P--Sr-1" edge="1">
          <mxGeometry relative="1" as="geometry">
            <mxPoint x="370" y="410" as="sourcePoint" />
            <mxPoint x="810" y="330" as="targetPoint" />
          </mxGeometry>
        </mxCell>
        <mxCell id="EZgEbDelP1gbQMjjr06G-9" value="/flipper_command&lt;br&gt;std_msgs/UInt8" style="edgeLabel;resizable=0;html=1;align=center;verticalAlign=middle;" parent="EZgEbDelP1gbQMjjr06G-8" connectable="0" vertex="1">
          <mxGeometry relative="1" as="geometry" />
        </mxCell>
        <mxCell id="f0i_HryZKQSi0Hp0Mjy3-4" value="" style="endArrow=classic;html=1;rounded=0;entryX=0;entryY=0.75;entryDx=0;entryDy=0;exitX=1;exitY=0.75;exitDx=0;exitDy=0;" parent="1" source="EZgEbDelP1gbQMjjr06G-4" target="EZgEbDelP1gbQMjjr06G-3" edge="1">
          <mxGeometry relative="1" as="geometry">
            <mxPoint x="210" y="315" as="sourcePoint" />
            <mxPoint x="500" y="315" as="targetPoint" />
          </mxGeometry>
        </mxCell>
        <mxCell id="f0i_HryZKQSi0Hp0Mjy3-5" value="/flipper_mode&lt;br&gt;std_msgs/UInt8" style="edgeLabel;resizable=0;html=1;align=center;verticalAlign=middle;" parent="f0i_HryZKQSi0Hp0Mjy3-4" connectable="0" vertex="1">
          <mxGeometry relative="1" as="geometry" />
        </mxCell>
        <mxCell id="f0i_HryZKQSi0Hp0Mjy3-6" value="" style="endArrow=classic;html=1;rounded=0;exitX=0.5;exitY=1;exitDx=0;exitDy=0;entryX=0.5;entryY=1;entryDx=0;entryDy=0;" parent="1" source="GSwu48_hRkYFbj5P--Sr-1" target="EZgEbDelP1gbQMjjr06G-3" edge="1">
          <mxGeometry relative="1" as="geometry">
            <mxPoint x="811" y="399" as="sourcePoint" />
            <mxPoint x="770" y="460" as="targetPoint" />
            <Array as="points">
              <mxPoint x="890" y="400" />
              <mxPoint x="565" y="400" />
            </Array>
          </mxGeometry>
        </mxCell>
        <mxCell id="f0i_HryZKQSi0Hp0Mjy3-7" value="/IR_status&lt;br&gt;std_msgs/UInt8" style="edgeLabel;resizable=0;html=1;align=center;verticalAlign=middle;" parent="f0i_HryZKQSi0Hp0Mjy3-6" connectable="0" vertex="1">
          <mxGeometry relative="1" as="geometry" />
        </mxCell>
        <mxCell id="GSwu48_hRkYFbj5P--Sr-1" value="robot_controller_node" style="rounded=1;whiteSpace=wrap;html=1;fillColor=#e1d5e7;strokeColor=#9673a6;" parent="1" vertex="1">
          <mxGeometry x="820" y="315" width="140" height="30" as="geometry" />
        </mxCell>
      </root>
    </mxGraphModel>
  </diagram>
</mxfile>
